<mxfile host="app.diagrams.net" agent="Mozilla/5.0 (Windows NT 10.0; Win64; x64) AppleWebKit/537.36 (KHTML, like Gecko) Chrome/92.0.4515.131 Safari/537.36 Edg/92.0.902.67" version="26.2.14">
  <diagram name="Page-1" id="FoEoWMVOJTnuln3-TEQc">
    <mxGraphModel dx="2180" dy="1223" grid="1" gridSize="10" guides="1" tooltips="1" connect="1" arrows="1" fold="1" page="1" pageScale="1" pageWidth="850" pageHeight="1100" math="0" shadow="0">
      <root>
        <mxCell id="0" />
        <mxCell id="1" parent="0" />
        <mxCell id="JQ3Pu39aECeHjvt2iDNs-1" value="Fulname&amp;nbsp;&amp;nbsp;&lt;div&gt;&amp;nbsp;&lt;div&gt;Dob&amp;nbsp; &amp;nbsp; &amp;nbsp; &amp;nbsp; &amp;nbsp;&amp;nbsp;&lt;/div&gt;&lt;div&gt;&amp;nbsp; &amp;nbsp; &amp;nbsp; &amp;nbsp;&amp;nbsp;&lt;/div&gt;&lt;div&gt;contacatno&amp;nbsp;&amp;nbsp;&lt;/div&gt;&lt;div&gt;&amp;nbsp;&amp;nbsp;&lt;/div&gt;&lt;div&gt;Email&amp;nbsp; &amp;nbsp; &amp;nbsp; &amp;nbsp; &amp;nbsp;&amp;nbsp;&lt;/div&gt;&lt;div&gt;&amp;nbsp; &amp;nbsp; &amp;nbsp; &amp;nbsp; &amp;nbsp;&amp;nbsp;&lt;/div&gt;&lt;div&gt;Full address&lt;/div&gt;&lt;div&gt;&amp;nbsp;&lt;/div&gt;&lt;div&gt;&amp;nbsp; Account status&lt;/div&gt;&lt;div&gt;&lt;br&gt;&lt;/div&gt;&lt;/div&gt;" style="rounded=0;whiteSpace=wrap;html=1;" parent="1" vertex="1">
          <mxGeometry x="760" y="950" width="120" height="190" as="geometry" />
        </mxCell>
        <mxCell id="JQ3Pu39aECeHjvt2iDNs-2" value="faculty ID" style="rounded=0;whiteSpace=wrap;html=1;" parent="1" vertex="1">
          <mxGeometry x="760" y="920" width="120" height="30" as="geometry" />
        </mxCell>
        <mxCell id="JQ3Pu39aECeHjvt2iDNs-3" value="faculty" style="rounded=0;whiteSpace=wrap;html=1;" parent="1" vertex="1">
          <mxGeometry x="760" y="890" width="120" height="30" as="geometry" />
        </mxCell>
        <mxCell id="JQ3Pu39aECeHjvt2iDNs-4" value="&lt;div&gt;&lt;br&gt;&lt;/div&gt;&lt;div&gt;Book name&lt;/div&gt;Author name&lt;div&gt;&lt;br&gt;&lt;div&gt;&amp;nbsp; &amp;nbsp;publisher name&lt;/div&gt;&lt;div&gt;&lt;br&gt;&lt;/div&gt;&lt;div&gt;publisherDate&lt;/div&gt;&lt;div&gt;&lt;br&gt;&lt;/div&gt;&lt;div&gt;Edition&amp;nbsp; &amp;nbsp; &amp;nbsp; &amp;nbsp; &amp;nbsp; &amp;nbsp;&lt;/div&gt;&lt;div&gt;&lt;br&gt;&lt;/div&gt;&lt;div&gt;Book cost&amp;nbsp; &amp;nbsp; &amp;nbsp; &amp;nbsp;&lt;/div&gt;&lt;div&gt;&lt;br&gt;&lt;/div&gt;&lt;div&gt;No of page&amp;nbsp; &amp;nbsp; &amp;nbsp;&amp;nbsp;&lt;/div&gt;&lt;div&gt;&lt;br&gt;&lt;/div&gt;&lt;div&gt;&amp;nbsp; &amp;nbsp;Book describtion&lt;/div&gt;&lt;div&gt;&lt;br&gt;&lt;/div&gt;&lt;div&gt;No of copy&amp;nbsp; &amp;nbsp; &amp;nbsp;&amp;nbsp;&lt;/div&gt;&lt;div&gt;&lt;br&gt;&lt;/div&gt;&lt;div&gt;&lt;br&gt;&lt;/div&gt;&lt;/div&gt;" style="rounded=0;whiteSpace=wrap;html=1;" parent="1" vertex="1">
          <mxGeometry x="760" y="1260" width="120" height="250" as="geometry" />
        </mxCell>
        <mxCell id="JQ3Pu39aECeHjvt2iDNs-5" value="pk&amp;nbsp; &amp;nbsp; &amp;nbsp; Book ID&amp;nbsp; &amp;nbsp; &amp;nbsp; &amp;nbsp; &amp;nbsp; &amp;nbsp; &amp;nbsp; &amp;nbsp;" style="rounded=0;whiteSpace=wrap;html=1;" parent="1" vertex="1">
          <mxGeometry x="760" y="1230" width="120" height="30" as="geometry" />
        </mxCell>
        <mxCell id="JQ3Pu39aECeHjvt2iDNs-6" value="Book Details" style="rounded=0;whiteSpace=wrap;html=1;" parent="1" vertex="1">
          <mxGeometry x="760" y="1200" width="120" height="30" as="geometry" />
        </mxCell>
        <mxCell id="JQ3Pu39aECeHjvt2iDNs-7" value="Faculty ID&lt;div&gt;&lt;br&gt;&lt;div&gt;Book ID&amp;nbsp;&lt;/div&gt;&lt;div&gt;&amp;nbsp;&amp;nbsp;&amp;nbsp;&lt;/div&gt;&lt;div&gt;Issue Date&lt;/div&gt;&lt;/div&gt;" style="rounded=0;whiteSpace=wrap;html=1;" parent="1" vertex="1">
          <mxGeometry x="960" y="1020" width="120" height="110" as="geometry" />
        </mxCell>
        <mxCell id="JQ3Pu39aECeHjvt2iDNs-8" value="PK&amp;nbsp; &amp;nbsp; &amp;nbsp; &amp;nbsp; &amp;nbsp; &amp;nbsp; &amp;nbsp; &amp;nbsp;Issue ID" style="rounded=0;whiteSpace=wrap;html=1;" parent="1" vertex="1">
          <mxGeometry x="960" y="990" width="120" height="30" as="geometry" />
        </mxCell>
        <mxCell id="JQ3Pu39aECeHjvt2iDNs-9" value="Faulty issue" style="rounded=0;whiteSpace=wrap;html=1;" parent="1" vertex="1">
          <mxGeometry x="960" y="960" width="120" height="30" as="geometry" />
        </mxCell>
        <mxCell id="JQ3Pu39aECeHjvt2iDNs-10" value="Faculty ID&lt;div&gt;&lt;br&gt;&lt;div&gt;Book ID&amp;nbsp; &amp;nbsp;&amp;nbsp;&lt;/div&gt;&lt;div&gt;&lt;br&gt;&lt;/div&gt;&lt;div&gt;Issue Date&lt;/div&gt;&lt;div&gt;&lt;br&gt;&lt;/div&gt;&lt;div&gt;return date&lt;/div&gt;&lt;/div&gt;" style="rounded=0;whiteSpace=wrap;html=1;" parent="1" vertex="1">
          <mxGeometry x="960" y="1230" width="120" height="120" as="geometry" />
        </mxCell>
        <mxCell id="JQ3Pu39aECeHjvt2iDNs-11" value="pk&amp;nbsp; &amp;nbsp; &amp;nbsp; Issue ID&amp;nbsp; &amp;nbsp; &amp;nbsp; &amp;nbsp;" style="rounded=0;whiteSpace=wrap;html=1;" parent="1" vertex="1">
          <mxGeometry x="960" y="1200" width="120" height="30" as="geometry" />
        </mxCell>
        <mxCell id="JQ3Pu39aECeHjvt2iDNs-12" value="Faculty return" style="rounded=0;whiteSpace=wrap;html=1;" parent="1" vertex="1">
          <mxGeometry x="960" y="1170" width="120" height="30" as="geometry" />
        </mxCell>
        <mxCell id="JQ3Pu39aECeHjvt2iDNs-13" value="" style="edgeStyle=entityRelationEdgeStyle;fontSize=12;html=1;endArrow=ERmany;rounded=0;exitX=0.975;exitY=0.847;exitDx=0;exitDy=0;exitPerimeter=0;entryX=-0.003;entryY=0.421;entryDx=0;entryDy=0;entryPerimeter=0;" parent="1" source="JQ3Pu39aECeHjvt2iDNs-1" target="JQ3Pu39aECeHjvt2iDNs-10" edge="1">
          <mxGeometry width="100" height="100" relative="1" as="geometry">
            <mxPoint x="870" y="1120" as="sourcePoint" />
            <mxPoint x="960" y="1280" as="targetPoint" />
            <Array as="points">
              <mxPoint x="1001.3600000000001" y="1323.23" />
              <mxPoint x="1051" y="1205.49" />
              <mxPoint x="771" y="1185.49" />
              <mxPoint x="881" y="1165.49" />
              <mxPoint x="751" y="1185.49" />
              <mxPoint x="1051" y="1215.49" />
              <mxPoint x="1221" y="1265.49" />
              <mxPoint x="1011" y="1205.49" />
              <mxPoint x="971.3600000000001" y="1263.23" />
              <mxPoint x="981.3600000000001" y="1253.23" />
              <mxPoint x="991.3600000000001" y="1295.23" />
              <mxPoint x="991.3600000000001" y="1323.23" />
              <mxPoint x="991.3600000000001" y="1323.23" />
            </Array>
          </mxGeometry>
        </mxCell>
        <mxCell id="JQ3Pu39aECeHjvt2iDNs-14" value="" style="edgeStyle=entityRelationEdgeStyle;fontSize=12;html=1;endArrow=ERmandOne;startArrow=ERmandOne;rounded=0;exitX=0.997;exitY=0.826;exitDx=0;exitDy=0;exitPerimeter=0;entryX=-0.003;entryY=0.645;entryDx=0;entryDy=0;entryPerimeter=0;" parent="1" source="JQ3Pu39aECeHjvt2iDNs-4" target="JQ3Pu39aECeHjvt2iDNs-10" edge="1">
          <mxGeometry width="100" height="100" relative="1" as="geometry">
            <mxPoint x="860" y="1410" as="sourcePoint" />
            <mxPoint x="960" y="1310" as="targetPoint" />
            <Array as="points">
              <mxPoint x="930" y="1410" />
            </Array>
          </mxGeometry>
        </mxCell>
        <mxCell id="JQ3Pu39aECeHjvt2iDNs-15" value="" style="edgeStyle=entityRelationEdgeStyle;fontSize=12;html=1;endArrow=ERmandOne;startArrow=ERmandOne;rounded=0;exitX=1;exitY=0.25;exitDx=0;exitDy=0;entryX=0;entryY=0.75;entryDx=0;entryDy=0;" parent="1" source="JQ3Pu39aECeHjvt2iDNs-4" target="JQ3Pu39aECeHjvt2iDNs-7" edge="1">
          <mxGeometry width="100" height="100" relative="1" as="geometry">
            <mxPoint x="880" y="1230" as="sourcePoint" />
            <mxPoint x="960" y="1114" as="targetPoint" />
            <Array as="points">
              <mxPoint x="930" y="1223" />
              <mxPoint x="920" y="1133" />
            </Array>
          </mxGeometry>
        </mxCell>
        <mxCell id="JQ3Pu39aECeHjvt2iDNs-16" value="pk&amp;nbsp; &amp;nbsp; &amp;nbsp; &amp;nbsp; &amp;nbsp; transaction ID&amp;nbsp; &amp;nbsp;" style="rounded=0;whiteSpace=wrap;html=1;" parent="1" vertex="1">
          <mxGeometry x="520" y="1009" width="170" height="30" as="geometry" />
        </mxCell>
        <mxCell id="JQ3Pu39aECeHjvt2iDNs-17" value="Transaction&amp;nbsp;" style="rounded=0;whiteSpace=wrap;html=1;" parent="1" vertex="1">
          <mxGeometry x="520" y="980" width="170" height="30" as="geometry" />
        </mxCell>
        <mxCell id="JQ3Pu39aECeHjvt2iDNs-18" value="Fullname&amp;nbsp; &amp;nbsp; &amp;nbsp; &amp;nbsp;&lt;div&gt;&lt;br&gt;&lt;div&gt;Dob&amp;nbsp; &amp;nbsp; &amp;nbsp; &amp;nbsp; &amp;nbsp; &amp;nbsp; &amp;nbsp;&amp;nbsp;&lt;/div&gt;&lt;div&gt;&lt;br&gt;&lt;/div&gt;&lt;div&gt;ContactNO&amp;nbsp; &amp;nbsp;&lt;/div&gt;&lt;div&gt;&lt;br&gt;&lt;/div&gt;&lt;div&gt;Email&amp;nbsp; &amp;nbsp; &amp;nbsp; &amp;nbsp; &amp;nbsp; &amp;nbsp;&amp;nbsp;&lt;/div&gt;&lt;div&gt;&lt;br&gt;&lt;/div&gt;&lt;div&gt;City&amp;nbsp; &amp;nbsp; &amp;nbsp; &amp;nbsp; &amp;nbsp; &amp;nbsp; &amp;nbsp;&amp;nbsp;&lt;/div&gt;&lt;div&gt;&amp;nbsp;&lt;/div&gt;&lt;div&gt;Full address&lt;/div&gt;&lt;div&gt;&lt;br&gt;&lt;/div&gt;&lt;div&gt;&amp;nbsp; Account Status&lt;/div&gt;&lt;div&gt;&lt;br&gt;&lt;/div&gt;&lt;div&gt;image&amp;nbsp; &amp;nbsp; &amp;nbsp; &amp;nbsp; &amp;nbsp; &amp;nbsp; &amp;nbsp;&lt;/div&gt;&lt;/div&gt;" style="rounded=0;whiteSpace=wrap;html=1;" parent="1" vertex="1">
          <mxGeometry x="510" y="1335" width="170" height="240" as="geometry" />
        </mxCell>
        <mxCell id="JQ3Pu39aECeHjvt2iDNs-19" value="Student&amp;nbsp;" style="rounded=0;whiteSpace=wrap;html=1;" parent="1" vertex="1">
          <mxGeometry x="510" y="1275" width="170" height="30" as="geometry" />
        </mxCell>
        <mxCell id="JQ3Pu39aECeHjvt2iDNs-20" value="" style="edgeStyle=entityRelationEdgeStyle;fontSize=12;html=1;endArrow=ERmany;rounded=0;exitX=0.992;exitY=0.096;exitDx=0;exitDy=0;exitPerimeter=0;entryX=0;entryY=0.455;entryDx=0;entryDy=0;entryPerimeter=0;" parent="1" source="JQ3Pu39aECeHjvt2iDNs-1" target="JQ3Pu39aECeHjvt2iDNs-7" edge="1">
          <mxGeometry width="100" height="100" relative="1" as="geometry">
            <mxPoint x="877" y="922.5" as="sourcePoint" />
            <mxPoint x="960" y="1087.5" as="targetPoint" />
            <Array as="points">
              <mxPoint x="1001.3600000000001" y="1134.73" />
              <mxPoint x="1051" y="1016.99" />
              <mxPoint x="771" y="996.99" />
              <mxPoint x="881" y="976.99" />
              <mxPoint x="751" y="996.99" />
              <mxPoint x="1051" y="1026.99" />
              <mxPoint x="1221" y="1076.99" />
              <mxPoint x="1011" y="1016.99" />
              <mxPoint x="971.3600000000001" y="1074.73" />
              <mxPoint x="981.3600000000001" y="1064.73" />
              <mxPoint x="991.3600000000001" y="1106.73" />
              <mxPoint x="991.3600000000001" y="1134.73" />
              <mxPoint x="991.3600000000001" y="1134.73" />
            </Array>
          </mxGeometry>
        </mxCell>
        <mxCell id="JQ3Pu39aECeHjvt2iDNs-21" value="" style="edgeStyle=entityRelationEdgeStyle;fontSize=12;html=1;endArrow=ERzeroToMany;startArrow=ERzeroToOne;rounded=0;entryX=0.019;entryY=0.36;entryDx=0;entryDy=0;entryPerimeter=0;exitX=1.028;exitY=0.681;exitDx=0;exitDy=0;exitPerimeter=0;" parent="1" source="JQ3Pu39aECeHjvt2iDNs-41" target="JQ3Pu39aECeHjvt2iDNs-1" edge="1">
          <mxGeometry width="100" height="100" relative="1" as="geometry">
            <mxPoint x="660" y="1170" as="sourcePoint" />
            <mxPoint x="760" y="1070" as="targetPoint" />
          </mxGeometry>
        </mxCell>
        <mxCell id="JQ3Pu39aECeHjvt2iDNs-22" value="" style="edgeStyle=entityRelationEdgeStyle;fontSize=12;html=1;endArrow=ERzeroToMany;startArrow=ERmandOne;rounded=0;entryX=1;entryY=0.25;entryDx=0;entryDy=0;exitX=1;exitY=0.25;exitDx=0;exitDy=0;" parent="1" source="JQ3Pu39aECeHjvt2iDNs-41" target="JQ3Pu39aECeHjvt2iDNs-18" edge="1">
          <mxGeometry width="100" height="100" relative="1" as="geometry">
            <mxPoint x="688" y="1170" as="sourcePoint" />
            <mxPoint x="728" y="1290" as="targetPoint" />
            <Array as="points">
              <mxPoint x="728" y="1230" />
            </Array>
          </mxGeometry>
        </mxCell>
        <mxCell id="JQ3Pu39aECeHjvt2iDNs-23" value="" style="edgeStyle=entityRelationEdgeStyle;fontSize=12;html=1;endArrow=ERzeroToMany;startArrow=ERzeroToOne;rounded=0;entryX=0.008;entryY=0.195;entryDx=0;entryDy=0;entryPerimeter=0;exitX=1;exitY=0.75;exitDx=0;exitDy=0;" parent="1" source="JQ3Pu39aECeHjvt2iDNs-18" target="JQ3Pu39aECeHjvt2iDNs-4" edge="1">
          <mxGeometry width="100" height="100" relative="1" as="geometry">
            <mxPoint x="665" y="1384" as="sourcePoint" />
            <mxPoint x="759" y="1280" as="targetPoint" />
          </mxGeometry>
        </mxCell>
        <mxCell id="JQ3Pu39aECeHjvt2iDNs-24" value="" style="rounded=0;whiteSpace=wrap;html=1;" parent="1" vertex="1">
          <mxGeometry x="320" y="909" width="140" height="131" as="geometry" />
        </mxCell>
        <mxCell id="JQ3Pu39aECeHjvt2iDNs-25" value="" style="rounded=0;whiteSpace=wrap;html=1;" parent="1" vertex="1">
          <mxGeometry x="320" y="879" width="140" height="30" as="geometry" />
        </mxCell>
        <mxCell id="JQ3Pu39aECeHjvt2iDNs-26" value="" style="rounded=0;whiteSpace=wrap;html=1;" parent="1" vertex="1">
          <mxGeometry x="320" y="849" width="140" height="30" as="geometry" />
        </mxCell>
        <mxCell id="JQ3Pu39aECeHjvt2iDNs-27" value="" style="edgeStyle=entityRelationEdgeStyle;fontSize=12;html=1;endArrow=ERzeroToMany;startArrow=ERmandOne;rounded=0;exitX=1;exitY=0.5;exitDx=0;exitDy=0;entryX=-0.006;entryY=0.158;entryDx=0;entryDy=0;entryPerimeter=0;" parent="1" source="JQ3Pu39aECeHjvt2iDNs-25" target="JQ3Pu39aECeHjvt2iDNs-41" edge="1">
          <mxGeometry width="100" height="100" relative="1" as="geometry">
            <mxPoint x="430" y="1025" as="sourcePoint" />
            <mxPoint x="530" y="925" as="targetPoint" />
          </mxGeometry>
        </mxCell>
        <mxCell id="JQ3Pu39aECeHjvt2iDNs-28" value="" style="rounded=0;whiteSpace=wrap;html=1;" parent="1" vertex="1">
          <mxGeometry x="320" y="1210" width="140" height="140" as="geometry" />
        </mxCell>
        <mxCell id="JQ3Pu39aECeHjvt2iDNs-29" value="" style="rounded=0;whiteSpace=wrap;html=1;" parent="1" vertex="1">
          <mxGeometry x="320" y="1180" width="140" height="30" as="geometry" />
        </mxCell>
        <mxCell id="JQ3Pu39aECeHjvt2iDNs-30" value="" style="rounded=0;whiteSpace=wrap;html=1;" parent="1" vertex="1">
          <mxGeometry x="320" y="1150" width="140" height="30" as="geometry" />
        </mxCell>
        <mxCell id="JQ3Pu39aECeHjvt2iDNs-31" value="" style="rounded=0;whiteSpace=wrap;html=1;" parent="1" vertex="1">
          <mxGeometry x="320" y="1510" width="140" height="170" as="geometry" />
        </mxCell>
        <mxCell id="JQ3Pu39aECeHjvt2iDNs-32" value="" style="rounded=0;whiteSpace=wrap;html=1;" parent="1" vertex="1">
          <mxGeometry x="320" y="1480" width="140" height="30" as="geometry" />
        </mxCell>
        <mxCell id="JQ3Pu39aECeHjvt2iDNs-33" value="" style="rounded=0;whiteSpace=wrap;html=1;" parent="1" vertex="1">
          <mxGeometry x="320" y="1450" width="140" height="30" as="geometry" />
        </mxCell>
        <mxCell id="JQ3Pu39aECeHjvt2iDNs-34" value="&lt;b&gt;&lt;font style=&quot;font-size: 18px;&quot;&gt;ER DIAGRAM FOR library management system&amp;nbsp;&lt;/font&gt;&lt;/b&gt;" style="rounded=0;whiteSpace=wrap;html=1;" parent="1" vertex="1">
          <mxGeometry x="370" y="780" width="570" height="40" as="geometry" />
        </mxCell>
        <mxCell id="JQ3Pu39aECeHjvt2iDNs-35" value="" style="endArrow=none;html=1;rounded=0;strokeColor=#182E3E;fontColor=#1A1A1A;exitX=0.25;exitY=0.263;exitDx=0;exitDy=0;exitPerimeter=0;" parent="1" source="JQ3Pu39aECeHjvt2iDNs-1" edge="1">
          <mxGeometry width="50" height="50" relative="1" as="geometry">
            <mxPoint x="804" y="950" as="sourcePoint" />
            <mxPoint x="790" y="920" as="targetPoint" />
            <Array as="points">
              <mxPoint x="790" y="920" />
            </Array>
          </mxGeometry>
        </mxCell>
        <mxCell id="JQ3Pu39aECeHjvt2iDNs-36" value="" style="endArrow=none;html=1;rounded=0;strokeColor=#182E3E;fontColor=#1A1A1A;exitX=0.25;exitY=0.263;exitDx=0;exitDy=0;exitPerimeter=0;" parent="1" edge="1">
          <mxGeometry width="50" height="50" relative="1" as="geometry">
            <mxPoint x="784" y="1310" as="sourcePoint" />
            <mxPoint x="784" y="1230" as="targetPoint" />
            <Array as="points">
              <mxPoint x="784" y="1230" />
            </Array>
          </mxGeometry>
        </mxCell>
        <mxCell id="JQ3Pu39aECeHjvt2iDNs-37" value="" style="endArrow=none;html=1;rounded=0;strokeColor=#182E3E;fontColor=#1A1A1A;exitX=0.25;exitY=0.263;exitDx=0;exitDy=0;exitPerimeter=0;" parent="1" edge="1">
          <mxGeometry width="50" height="50" relative="1" as="geometry">
            <mxPoint x="989" y="1065" as="sourcePoint" />
            <mxPoint x="989" y="985" as="targetPoint" />
            <Array as="points">
              <mxPoint x="989" y="985" />
            </Array>
          </mxGeometry>
        </mxCell>
        <mxCell id="JQ3Pu39aECeHjvt2iDNs-38" value="" style="endArrow=none;html=1;rounded=0;strokeColor=#182E3E;fontColor=#1A1A1A;exitX=0.25;exitY=0.263;exitDx=0;exitDy=0;exitPerimeter=0;" parent="1" edge="1">
          <mxGeometry width="50" height="50" relative="1" as="geometry">
            <mxPoint x="990" y="1280" as="sourcePoint" />
            <mxPoint x="990" y="1200" as="targetPoint" />
            <Array as="points">
              <mxPoint x="990" y="1200" />
            </Array>
          </mxGeometry>
        </mxCell>
        <mxCell id="JQ3Pu39aECeHjvt2iDNs-39" value="" style="endArrow=none;html=1;rounded=0;strokeColor=#182E3E;fontColor=#1A1A1A;" parent="1" source="JQ3Pu39aECeHjvt2iDNs-41" edge="1">
          <mxGeometry width="50" height="50" relative="1" as="geometry">
            <mxPoint x="560" y="1210" as="sourcePoint" />
            <mxPoint x="610" y="1160" as="targetPoint" />
          </mxGeometry>
        </mxCell>
        <mxCell id="JQ3Pu39aECeHjvt2iDNs-40" value="" style="endArrow=none;html=1;rounded=0;strokeColor=#182E3E;fontColor=#1A1A1A;" parent="1" target="JQ3Pu39aECeHjvt2iDNs-41" edge="1">
          <mxGeometry width="50" height="50" relative="1" as="geometry">
            <mxPoint x="560" y="1210" as="sourcePoint" />
            <mxPoint x="610" y="1160" as="targetPoint" />
          </mxGeometry>
        </mxCell>
        <mxCell id="JQ3Pu39aECeHjvt2iDNs-41" value="Fk1&amp;nbsp; Fk_studen_trnsaction&amp;nbsp; &amp;nbsp;&amp;nbsp;&lt;div&gt;&lt;br&gt;&lt;div&gt;FK2&amp;nbsp; &amp;nbsp; Fk_Book_transaction&amp;nbsp; &amp;nbsp; &amp;nbsp;&lt;/div&gt;&lt;div&gt;&lt;br&gt;&lt;/div&gt;&lt;div&gt;Book_ID&amp;nbsp; &amp;nbsp; &amp;nbsp;&lt;/div&gt;&lt;div&gt;&lt;br&gt;&lt;/div&gt;&lt;div&gt;Issue_Date&amp;nbsp;&amp;nbsp;&lt;/div&gt;&lt;div&gt;&amp;nbsp; &amp;nbsp;&amp;nbsp;&lt;/div&gt;&lt;div&gt;Return_Date&amp;nbsp;&amp;nbsp;&lt;/div&gt;&lt;/div&gt;" style="rounded=0;whiteSpace=wrap;html=1;" parent="1" vertex="1">
          <mxGeometry x="520" y="1038" width="170" height="192" as="geometry" />
        </mxCell>
        <mxCell id="JQ3Pu39aECeHjvt2iDNs-42" value="" style="endArrow=none;html=1;rounded=0;strokeColor=#182E3E;fontColor=#1A1A1A;entryX=0.184;entryY=0.089;entryDx=0;entryDy=0;entryPerimeter=0;exitX=0.172;exitY=0.531;exitDx=0;exitDy=0;exitPerimeter=0;" parent="1" source="JQ3Pu39aECeHjvt2iDNs-41" target="JQ3Pu39aECeHjvt2iDNs-16" edge="1">
          <mxGeometry width="50" height="50" relative="1" as="geometry">
            <mxPoint x="560" y="1210" as="sourcePoint" />
            <mxPoint x="610" y="1160" as="targetPoint" />
          </mxGeometry>
        </mxCell>
        <mxCell id="JQ3Pu39aECeHjvt2iDNs-43" value="" style="endArrow=none;html=1;rounded=0;strokeColor=#182E3E;fontColor=#1A1A1A;exitX=0.25;exitY=0;exitDx=0;exitDy=0;entryX=0.235;entryY=0.438;entryDx=0;entryDy=0;entryPerimeter=0;" parent="1" source="JQ3Pu39aECeHjvt2iDNs-45" target="JQ3Pu39aECeHjvt2iDNs-18" edge="1">
          <mxGeometry width="50" height="50" relative="1" as="geometry">
            <mxPoint x="550" y="1300" as="sourcePoint" />
            <mxPoint x="550" y="1400" as="targetPoint" />
            <Array as="points" />
          </mxGeometry>
        </mxCell>
        <mxCell id="JQ3Pu39aECeHjvt2iDNs-44" style="edgeStyle=orthogonalEdgeStyle;rounded=0;orthogonalLoop=1;jettySize=auto;html=1;exitX=0.25;exitY=1;exitDx=0;exitDy=0;entryX=0.25;entryY=1;entryDx=0;entryDy=0;strokeColor=#182E3E;fontColor=#1A1A1A;" parent="1" source="JQ3Pu39aECeHjvt2iDNs-45" target="JQ3Pu39aECeHjvt2iDNs-19" edge="1">
          <mxGeometry relative="1" as="geometry" />
        </mxCell>
        <mxCell id="JQ3Pu39aECeHjvt2iDNs-45" value="Pk&amp;nbsp; &amp;nbsp; &amp;nbsp; &amp;nbsp; &amp;nbsp; Student_ID&amp;nbsp; &amp;nbsp; &amp;nbsp; &amp;nbsp; &amp;nbsp; &amp;nbsp; &amp;nbsp;" style="rounded=0;whiteSpace=wrap;html=1;" parent="1" vertex="1">
          <mxGeometry x="510" y="1305" width="170" height="30" as="geometry" />
        </mxCell>
        <mxCell id="78TRFL_Pudhh9JTYJMQ1-1" value="Registration" style="shape=table;startSize=30;container=1;collapsible=1;childLayout=tableLayout;fixedRows=1;rowLines=0;fontStyle=1;align=center;resizeLast=1;html=1;" vertex="1" parent="1">
          <mxGeometry x="240" y="160" width="180" height="150" as="geometry" />
        </mxCell>
        <mxCell id="78TRFL_Pudhh9JTYJMQ1-2" value="" style="shape=tableRow;horizontal=0;startSize=0;swimlaneHead=0;swimlaneBody=0;fillColor=none;collapsible=0;dropTarget=0;points=[[0,0.5],[1,0.5]];portConstraint=eastwest;top=0;left=0;right=0;bottom=1;" vertex="1" parent="78TRFL_Pudhh9JTYJMQ1-1">
          <mxGeometry y="30" width="180" height="32" as="geometry" />
        </mxCell>
        <mxCell id="78TRFL_Pudhh9JTYJMQ1-3" value="PK" style="shape=partialRectangle;connectable=0;fillColor=none;top=0;left=0;bottom=0;right=0;fontStyle=1;overflow=hidden;whiteSpace=wrap;html=1;" vertex="1" parent="78TRFL_Pudhh9JTYJMQ1-2">
          <mxGeometry width="30" height="32" as="geometry">
            <mxRectangle width="30" height="32" as="alternateBounds" />
          </mxGeometry>
        </mxCell>
        <mxCell id="78TRFL_Pudhh9JTYJMQ1-4" value="ID" style="shape=partialRectangle;connectable=0;fillColor=none;top=0;left=0;bottom=0;right=0;align=left;spacingLeft=6;fontStyle=5;overflow=hidden;whiteSpace=wrap;html=1;" vertex="1" parent="78TRFL_Pudhh9JTYJMQ1-2">
          <mxGeometry x="30" width="150" height="32" as="geometry">
            <mxRectangle width="150" height="32" as="alternateBounds" />
          </mxGeometry>
        </mxCell>
        <mxCell id="78TRFL_Pudhh9JTYJMQ1-5" value="" style="shape=tableRow;horizontal=0;startSize=0;swimlaneHead=0;swimlaneBody=0;fillColor=none;collapsible=0;dropTarget=0;points=[[0,0.5],[1,0.5]];portConstraint=eastwest;top=0;left=0;right=0;bottom=0;" vertex="1" parent="78TRFL_Pudhh9JTYJMQ1-1">
          <mxGeometry y="62" width="180" height="30" as="geometry" />
        </mxCell>
        <mxCell id="78TRFL_Pudhh9JTYJMQ1-6" value="" style="shape=partialRectangle;connectable=0;fillColor=none;top=0;left=0;bottom=0;right=0;editable=1;overflow=hidden;whiteSpace=wrap;html=1;" vertex="1" parent="78TRFL_Pudhh9JTYJMQ1-5">
          <mxGeometry width="30" height="30" as="geometry">
            <mxRectangle width="30" height="30" as="alternateBounds" />
          </mxGeometry>
        </mxCell>
        <mxCell id="78TRFL_Pudhh9JTYJMQ1-7" value="&lt;b&gt;Username&lt;/b&gt;" style="shape=partialRectangle;connectable=0;fillColor=none;top=0;left=0;bottom=0;right=0;align=left;spacingLeft=6;overflow=hidden;whiteSpace=wrap;html=1;" vertex="1" parent="78TRFL_Pudhh9JTYJMQ1-5">
          <mxGeometry x="30" width="150" height="30" as="geometry">
            <mxRectangle width="150" height="30" as="alternateBounds" />
          </mxGeometry>
        </mxCell>
        <mxCell id="78TRFL_Pudhh9JTYJMQ1-8" value="" style="shape=tableRow;horizontal=0;startSize=0;swimlaneHead=0;swimlaneBody=0;fillColor=none;collapsible=0;dropTarget=0;points=[[0,0.5],[1,0.5]];portConstraint=eastwest;top=0;left=0;right=0;bottom=0;" vertex="1" parent="78TRFL_Pudhh9JTYJMQ1-1">
          <mxGeometry y="92" width="180" height="30" as="geometry" />
        </mxCell>
        <mxCell id="78TRFL_Pudhh9JTYJMQ1-9" value="" style="shape=partialRectangle;connectable=0;fillColor=none;top=0;left=0;bottom=0;right=0;editable=1;overflow=hidden;whiteSpace=wrap;html=1;" vertex="1" parent="78TRFL_Pudhh9JTYJMQ1-8">
          <mxGeometry width="30" height="30" as="geometry">
            <mxRectangle width="30" height="30" as="alternateBounds" />
          </mxGeometry>
        </mxCell>
        <mxCell id="78TRFL_Pudhh9JTYJMQ1-10" value="password" style="shape=partialRectangle;connectable=0;fillColor=none;top=0;left=0;bottom=0;right=0;align=left;spacingLeft=6;overflow=hidden;whiteSpace=wrap;html=1;" vertex="1" parent="78TRFL_Pudhh9JTYJMQ1-8">
          <mxGeometry x="30" width="150" height="30" as="geometry">
            <mxRectangle width="150" height="30" as="alternateBounds" />
          </mxGeometry>
        </mxCell>
        <mxCell id="78TRFL_Pudhh9JTYJMQ1-11" value="" style="shape=tableRow;horizontal=0;startSize=0;swimlaneHead=0;swimlaneBody=0;fillColor=none;collapsible=0;dropTarget=0;points=[[0,0.5],[1,0.5]];portConstraint=eastwest;top=0;left=0;right=0;bottom=0;" vertex="1" parent="78TRFL_Pudhh9JTYJMQ1-1">
          <mxGeometry y="122" width="180" height="28" as="geometry" />
        </mxCell>
        <mxCell id="78TRFL_Pudhh9JTYJMQ1-12" value="" style="shape=partialRectangle;connectable=0;fillColor=none;top=0;left=0;bottom=0;right=0;editable=1;overflow=hidden;whiteSpace=wrap;html=1;" vertex="1" parent="78TRFL_Pudhh9JTYJMQ1-11">
          <mxGeometry width="30" height="28" as="geometry">
            <mxRectangle width="30" height="28" as="alternateBounds" />
          </mxGeometry>
        </mxCell>
        <mxCell id="78TRFL_Pudhh9JTYJMQ1-13" value="Confirm password" style="shape=partialRectangle;connectable=0;fillColor=none;top=0;left=0;bottom=0;right=0;align=left;spacingLeft=6;overflow=hidden;whiteSpace=wrap;html=1;" vertex="1" parent="78TRFL_Pudhh9JTYJMQ1-11">
          <mxGeometry x="30" width="150" height="28" as="geometry">
            <mxRectangle width="150" height="28" as="alternateBounds" />
          </mxGeometry>
        </mxCell>
        <mxCell id="78TRFL_Pudhh9JTYJMQ1-14" value="" style="endArrow=none;html=1;rounded=0;fontFamily=Helvetica;fontSize=12;fontColor=default;horizontal=0;exitX=0.016;exitY=-0.075;exitDx=0;exitDy=0;exitPerimeter=0;entryX=0.994;entryY=0.89;entryDx=0;entryDy=0;entryPerimeter=0;" edge="1" parent="78TRFL_Pudhh9JTYJMQ1-1" target="78TRFL_Pudhh9JTYJMQ1-5">
          <mxGeometry width="50" height="50" relative="1" as="geometry">
            <mxPoint x="-0.11999999999989086" y="89.75" as="sourcePoint" />
            <mxPoint x="187" y="90" as="targetPoint" />
          </mxGeometry>
        </mxCell>
        <mxCell id="78TRFL_Pudhh9JTYJMQ1-15" value="User Role" style="shape=partialRectangle;connectable=0;fillColor=none;top=0;left=0;bottom=0;right=0;align=left;spacingLeft=6;overflow=hidden;whiteSpace=wrap;html=1;" vertex="1" parent="1">
          <mxGeometry x="270" y="313" width="150" height="30" as="geometry">
            <mxRectangle width="150" height="30" as="alternateBounds" />
          </mxGeometry>
        </mxCell>
        <mxCell id="78TRFL_Pudhh9JTYJMQ1-16" value="" style="endArrow=none;html=1;rounded=0;fontFamily=Helvetica;fontSize=12;fontColor=default;horizontal=0;" edge="1" parent="1">
          <mxGeometry width="50" height="50" relative="1" as="geometry">
            <mxPoint x="240" y="350" as="sourcePoint" />
            <mxPoint x="420" y="350" as="targetPoint" />
          </mxGeometry>
        </mxCell>
        <mxCell id="78TRFL_Pudhh9JTYJMQ1-17" value="" style="endArrow=none;html=1;rounded=0;fontFamily=Helvetica;fontSize=12;fontColor=default;horizontal=0;" edge="1" parent="1">
          <mxGeometry width="50" height="50" relative="1" as="geometry">
            <mxPoint x="420" y="310" as="sourcePoint" />
            <mxPoint x="420" y="350" as="targetPoint" />
          </mxGeometry>
        </mxCell>
        <mxCell id="78TRFL_Pudhh9JTYJMQ1-18" value="" style="endArrow=none;html=1;rounded=0;fontFamily=Helvetica;fontSize=12;fontColor=default;horizontal=0;" edge="1" parent="1">
          <mxGeometry width="50" height="50" relative="1" as="geometry">
            <mxPoint x="240" y="311" as="sourcePoint" />
            <mxPoint x="240" y="351" as="targetPoint" />
          </mxGeometry>
        </mxCell>
        <mxCell id="78TRFL_Pudhh9JTYJMQ1-19" value="" style="endArrow=none;html=1;rounded=0;fontFamily=Helvetica;fontSize=12;fontColor=default;horizontal=0;" edge="1" parent="1">
          <mxGeometry width="50" height="50" relative="1" as="geometry">
            <mxPoint x="270" y="311" as="sourcePoint" />
            <mxPoint x="270" y="351" as="targetPoint" />
          </mxGeometry>
        </mxCell>
        <mxCell id="78TRFL_Pudhh9JTYJMQ1-20" value="" style="edgeStyle=entityRelationEdgeStyle;fontSize=12;html=1;endArrow=ERzeroToMany;startArrow=ERzeroToOne;rounded=0;fontFamily=Helvetica;fontColor=default;horizontal=0;" edge="1" parent="1">
          <mxGeometry width="100" height="100" relative="1" as="geometry">
            <mxPoint x="420" y="244" as="sourcePoint" />
            <mxPoint x="540" y="244" as="targetPoint" />
            <Array as="points">
              <mxPoint x="510" y="144" />
              <mxPoint x="520" y="224" />
            </Array>
          </mxGeometry>
        </mxCell>
        <mxCell id="78TRFL_Pudhh9JTYJMQ1-21" value="Transcation" style="shape=table;startSize=30;container=1;collapsible=1;childLayout=tableLayout;fixedRows=1;rowLines=0;fontStyle=1;align=center;resizeLast=1;html=1;" vertex="1" parent="1">
          <mxGeometry x="542" y="165" width="180" height="200" as="geometry" />
        </mxCell>
        <mxCell id="78TRFL_Pudhh9JTYJMQ1-22" value="" style="shape=tableRow;horizontal=0;startSize=0;swimlaneHead=0;swimlaneBody=0;fillColor=none;collapsible=0;dropTarget=0;points=[[0,0.5],[1,0.5]];portConstraint=eastwest;top=0;left=0;right=0;bottom=1;" vertex="1" parent="78TRFL_Pudhh9JTYJMQ1-21">
          <mxGeometry y="30" width="180" height="32" as="geometry" />
        </mxCell>
        <mxCell id="78TRFL_Pudhh9JTYJMQ1-23" value="PK" style="shape=partialRectangle;connectable=0;fillColor=none;top=0;left=0;bottom=0;right=0;fontStyle=1;overflow=hidden;whiteSpace=wrap;html=1;" vertex="1" parent="78TRFL_Pudhh9JTYJMQ1-22">
          <mxGeometry width="30" height="32" as="geometry">
            <mxRectangle width="30" height="32" as="alternateBounds" />
          </mxGeometry>
        </mxCell>
        <mxCell id="78TRFL_Pudhh9JTYJMQ1-24" value="Transcation_ID" style="shape=partialRectangle;connectable=0;fillColor=none;top=0;left=0;bottom=0;right=0;align=left;spacingLeft=6;fontStyle=5;overflow=hidden;whiteSpace=wrap;html=1;" vertex="1" parent="78TRFL_Pudhh9JTYJMQ1-22">
          <mxGeometry x="30" width="150" height="32" as="geometry">
            <mxRectangle width="150" height="32" as="alternateBounds" />
          </mxGeometry>
        </mxCell>
        <mxCell id="78TRFL_Pudhh9JTYJMQ1-25" value="" style="shape=tableRow;horizontal=0;startSize=0;swimlaneHead=0;swimlaneBody=0;fillColor=none;collapsible=0;dropTarget=0;points=[[0,0.5],[1,0.5]];portConstraint=eastwest;top=0;left=0;right=0;bottom=0;" vertex="1" parent="78TRFL_Pudhh9JTYJMQ1-21">
          <mxGeometry y="62" width="180" height="30" as="geometry" />
        </mxCell>
        <mxCell id="78TRFL_Pudhh9JTYJMQ1-26" value="FK1" style="shape=partialRectangle;connectable=0;fillColor=none;top=0;left=0;bottom=0;right=0;editable=1;overflow=hidden;whiteSpace=wrap;html=1;" vertex="1" parent="78TRFL_Pudhh9JTYJMQ1-25">
          <mxGeometry width="30" height="30" as="geometry">
            <mxRectangle width="30" height="30" as="alternateBounds" />
          </mxGeometry>
        </mxCell>
        <mxCell id="78TRFL_Pudhh9JTYJMQ1-27" value="FK_Student_transcation" style="shape=partialRectangle;connectable=0;fillColor=none;top=0;left=0;bottom=0;right=0;align=left;spacingLeft=6;overflow=hidden;whiteSpace=wrap;html=1;" vertex="1" parent="78TRFL_Pudhh9JTYJMQ1-25">
          <mxGeometry x="30" width="150" height="30" as="geometry">
            <mxRectangle width="150" height="30" as="alternateBounds" />
          </mxGeometry>
        </mxCell>
        <mxCell id="78TRFL_Pudhh9JTYJMQ1-28" value="" style="shape=tableRow;horizontal=0;startSize=0;swimlaneHead=0;swimlaneBody=0;fillColor=none;collapsible=0;dropTarget=0;points=[[0,0.5],[1,0.5]];portConstraint=eastwest;top=0;left=0;right=0;bottom=0;" vertex="1" parent="78TRFL_Pudhh9JTYJMQ1-21">
          <mxGeometry y="92" width="180" height="30" as="geometry" />
        </mxCell>
        <mxCell id="78TRFL_Pudhh9JTYJMQ1-29" value="FK2" style="shape=partialRectangle;connectable=0;fillColor=none;top=0;left=0;bottom=0;right=0;editable=1;overflow=hidden;whiteSpace=wrap;html=1;" vertex="1" parent="78TRFL_Pudhh9JTYJMQ1-28">
          <mxGeometry width="30" height="30" as="geometry">
            <mxRectangle width="30" height="30" as="alternateBounds" />
          </mxGeometry>
        </mxCell>
        <mxCell id="78TRFL_Pudhh9JTYJMQ1-30" value="FK_Book_transction" style="shape=partialRectangle;connectable=0;fillColor=none;top=0;left=0;bottom=0;right=0;align=left;spacingLeft=6;overflow=hidden;whiteSpace=wrap;html=1;" vertex="1" parent="78TRFL_Pudhh9JTYJMQ1-28">
          <mxGeometry x="30" width="150" height="30" as="geometry">
            <mxRectangle width="150" height="30" as="alternateBounds" />
          </mxGeometry>
        </mxCell>
        <mxCell id="78TRFL_Pudhh9JTYJMQ1-31" value="" style="shape=tableRow;horizontal=0;startSize=0;swimlaneHead=0;swimlaneBody=0;fillColor=none;collapsible=0;dropTarget=0;points=[[0,0.5],[1,0.5]];portConstraint=eastwest;top=0;left=0;right=0;bottom=0;" vertex="1" parent="78TRFL_Pudhh9JTYJMQ1-21">
          <mxGeometry y="122" width="180" height="28" as="geometry" />
        </mxCell>
        <mxCell id="78TRFL_Pudhh9JTYJMQ1-32" value="" style="shape=partialRectangle;connectable=0;fillColor=none;top=0;left=0;bottom=0;right=0;editable=1;overflow=hidden;whiteSpace=wrap;html=1;" vertex="1" parent="78TRFL_Pudhh9JTYJMQ1-31">
          <mxGeometry width="30" height="28" as="geometry">
            <mxRectangle width="30" height="28" as="alternateBounds" />
          </mxGeometry>
        </mxCell>
        <mxCell id="78TRFL_Pudhh9JTYJMQ1-33" value="book_id" style="shape=partialRectangle;connectable=0;fillColor=none;top=0;left=0;bottom=0;right=0;align=left;spacingLeft=6;overflow=hidden;whiteSpace=wrap;html=1;" vertex="1" parent="78TRFL_Pudhh9JTYJMQ1-31">
          <mxGeometry x="30" width="150" height="28" as="geometry">
            <mxRectangle width="150" height="28" as="alternateBounds" />
          </mxGeometry>
        </mxCell>
        <mxCell id="78TRFL_Pudhh9JTYJMQ1-34" value="Issu_date" style="text;html=1;align=center;verticalAlign=middle;resizable=0;points=[];autosize=1;strokeColor=none;fillColor=none;fontFamily=Helvetica;fontSize=12;fontColor=default;horizontal=0;rotation=90;" vertex="1" parent="1">
          <mxGeometry x="585" y="298" width="40" height="70" as="geometry" />
        </mxCell>
        <mxCell id="78TRFL_Pudhh9JTYJMQ1-35" value="Return_date" style="text;html=1;align=center;verticalAlign=middle;resizable=0;points=[];autosize=1;strokeColor=none;fillColor=none;fontFamily=Helvetica;fontSize=12;fontColor=default;horizontal=0;rotation=90;" vertex="1" parent="1">
          <mxGeometry x="592" y="314" width="40" height="80" as="geometry" />
        </mxCell>
        <mxCell id="78TRFL_Pudhh9JTYJMQ1-36" value="" style="edgeStyle=entityRelationEdgeStyle;fontSize=12;html=1;endArrow=ERzeroToMany;startArrow=ERzeroToOne;rounded=0;fontFamily=Helvetica;fontColor=default;horizontal=0;" edge="1" parent="1">
          <mxGeometry width="100" height="100" relative="1" as="geometry">
            <mxPoint x="722" y="254" as="sourcePoint" />
            <mxPoint x="842" y="254" as="targetPoint" />
            <Array as="points">
              <mxPoint x="812" y="154" />
              <mxPoint x="822" y="234" />
            </Array>
          </mxGeometry>
        </mxCell>
        <mxCell id="78TRFL_Pudhh9JTYJMQ1-37" value="Faculty" style="shape=table;startSize=30;container=1;collapsible=1;childLayout=tableLayout;fixedRows=1;rowLines=0;fontStyle=1;align=center;resizeLast=1;html=1;" vertex="1" parent="1">
          <mxGeometry x="843" y="166" width="180" height="230" as="geometry" />
        </mxCell>
        <mxCell id="78TRFL_Pudhh9JTYJMQ1-38" value="" style="shape=tableRow;horizontal=0;startSize=0;swimlaneHead=0;swimlaneBody=0;fillColor=none;collapsible=0;dropTarget=0;points=[[0,0.5],[1,0.5]];portConstraint=eastwest;top=0;left=0;right=0;bottom=1;" vertex="1" parent="78TRFL_Pudhh9JTYJMQ1-37">
          <mxGeometry y="30" width="180" height="32" as="geometry" />
        </mxCell>
        <mxCell id="78TRFL_Pudhh9JTYJMQ1-39" value="PK" style="shape=partialRectangle;connectable=0;fillColor=none;top=0;left=0;bottom=0;right=0;fontStyle=1;overflow=hidden;whiteSpace=wrap;html=1;" vertex="1" parent="78TRFL_Pudhh9JTYJMQ1-38">
          <mxGeometry width="30" height="32" as="geometry">
            <mxRectangle width="30" height="32" as="alternateBounds" />
          </mxGeometry>
        </mxCell>
        <mxCell id="78TRFL_Pudhh9JTYJMQ1-40" value="Facultyid" style="shape=partialRectangle;connectable=0;fillColor=none;top=0;left=0;bottom=0;right=0;align=left;spacingLeft=6;fontStyle=5;overflow=hidden;whiteSpace=wrap;html=1;" vertex="1" parent="78TRFL_Pudhh9JTYJMQ1-38">
          <mxGeometry x="30" width="150" height="32" as="geometry">
            <mxRectangle width="150" height="32" as="alternateBounds" />
          </mxGeometry>
        </mxCell>
        <mxCell id="78TRFL_Pudhh9JTYJMQ1-41" value="" style="shape=tableRow;horizontal=0;startSize=0;swimlaneHead=0;swimlaneBody=0;fillColor=none;collapsible=0;dropTarget=0;points=[[0,0.5],[1,0.5]];portConstraint=eastwest;top=0;left=0;right=0;bottom=0;" vertex="1" parent="78TRFL_Pudhh9JTYJMQ1-37">
          <mxGeometry y="62" width="180" height="30" as="geometry" />
        </mxCell>
        <mxCell id="78TRFL_Pudhh9JTYJMQ1-42" value="" style="shape=partialRectangle;connectable=0;fillColor=none;top=0;left=0;bottom=0;right=0;editable=1;overflow=hidden;whiteSpace=wrap;html=1;" vertex="1" parent="78TRFL_Pudhh9JTYJMQ1-41">
          <mxGeometry width="30" height="30" as="geometry">
            <mxRectangle width="30" height="30" as="alternateBounds" />
          </mxGeometry>
        </mxCell>
        <mxCell id="78TRFL_Pudhh9JTYJMQ1-43" value="full name" style="shape=partialRectangle;connectable=0;fillColor=none;top=0;left=0;bottom=0;right=0;align=left;spacingLeft=6;overflow=hidden;whiteSpace=wrap;html=1;" vertex="1" parent="78TRFL_Pudhh9JTYJMQ1-41">
          <mxGeometry x="30" width="150" height="30" as="geometry">
            <mxRectangle width="150" height="30" as="alternateBounds" />
          </mxGeometry>
        </mxCell>
        <mxCell id="78TRFL_Pudhh9JTYJMQ1-44" value="" style="shape=tableRow;horizontal=0;startSize=0;swimlaneHead=0;swimlaneBody=0;fillColor=none;collapsible=0;dropTarget=0;points=[[0,0.5],[1,0.5]];portConstraint=eastwest;top=0;left=0;right=0;bottom=0;" vertex="1" parent="78TRFL_Pudhh9JTYJMQ1-37">
          <mxGeometry y="92" width="180" height="30" as="geometry" />
        </mxCell>
        <mxCell id="78TRFL_Pudhh9JTYJMQ1-45" value="" style="shape=partialRectangle;connectable=0;fillColor=none;top=0;left=0;bottom=0;right=0;editable=1;overflow=hidden;whiteSpace=wrap;html=1;" vertex="1" parent="78TRFL_Pudhh9JTYJMQ1-44">
          <mxGeometry width="30" height="30" as="geometry">
            <mxRectangle width="30" height="30" as="alternateBounds" />
          </mxGeometry>
        </mxCell>
        <mxCell id="78TRFL_Pudhh9JTYJMQ1-46" value="DOB" style="shape=partialRectangle;connectable=0;fillColor=none;top=0;left=0;bottom=0;right=0;align=left;spacingLeft=6;overflow=hidden;whiteSpace=wrap;html=1;" vertex="1" parent="78TRFL_Pudhh9JTYJMQ1-44">
          <mxGeometry x="30" width="150" height="30" as="geometry">
            <mxRectangle width="150" height="30" as="alternateBounds" />
          </mxGeometry>
        </mxCell>
        <mxCell id="78TRFL_Pudhh9JTYJMQ1-47" value="" style="shape=tableRow;horizontal=0;startSize=0;swimlaneHead=0;swimlaneBody=0;fillColor=none;collapsible=0;dropTarget=0;points=[[0,0.5],[1,0.5]];portConstraint=eastwest;top=0;left=0;right=0;bottom=0;" vertex="1" parent="78TRFL_Pudhh9JTYJMQ1-37">
          <mxGeometry y="122" width="180" height="28" as="geometry" />
        </mxCell>
        <mxCell id="78TRFL_Pudhh9JTYJMQ1-48" value="" style="shape=partialRectangle;connectable=0;fillColor=none;top=0;left=0;bottom=0;right=0;editable=1;overflow=hidden;whiteSpace=wrap;html=1;" vertex="1" parent="78TRFL_Pudhh9JTYJMQ1-47">
          <mxGeometry width="30" height="28" as="geometry">
            <mxRectangle width="30" height="28" as="alternateBounds" />
          </mxGeometry>
        </mxCell>
        <mxCell id="78TRFL_Pudhh9JTYJMQ1-49" value="Email" style="shape=partialRectangle;connectable=0;fillColor=none;top=0;left=0;bottom=0;right=0;align=left;spacingLeft=6;overflow=hidden;whiteSpace=wrap;html=1;" vertex="1" parent="78TRFL_Pudhh9JTYJMQ1-47">
          <mxGeometry x="30" width="150" height="28" as="geometry">
            <mxRectangle width="150" height="28" as="alternateBounds" />
          </mxGeometry>
        </mxCell>
        <mxCell id="78TRFL_Pudhh9JTYJMQ1-50" value="Full address" style="shape=partialRectangle;connectable=0;fillColor=none;top=0;left=0;bottom=0;right=0;align=left;spacingLeft=6;overflow=hidden;whiteSpace=wrap;html=1;" vertex="1" parent="1">
          <mxGeometry x="874" y="314" width="150" height="28" as="geometry">
            <mxRectangle width="150" height="28" as="alternateBounds" />
          </mxGeometry>
        </mxCell>
        <mxCell id="78TRFL_Pudhh9JTYJMQ1-51" value="Accunt statue" style="shape=partialRectangle;connectable=0;fillColor=none;top=0;left=0;bottom=0;right=0;align=left;spacingLeft=6;overflow=hidden;whiteSpace=wrap;html=1;" vertex="1" parent="1">
          <mxGeometry x="874" y="339" width="150" height="28" as="geometry">
            <mxRectangle width="150" height="28" as="alternateBounds" />
          </mxGeometry>
        </mxCell>
        <mxCell id="78TRFL_Pudhh9JTYJMQ1-52" value="Faculty Issue" style="shape=table;startSize=30;container=1;collapsible=1;childLayout=tableLayout;fixedRows=1;rowLines=0;fontStyle=1;align=center;resizeLast=1;html=1;" vertex="1" parent="1">
          <mxGeometry x="1130" y="195" width="180" height="150" as="geometry" />
        </mxCell>
        <mxCell id="78TRFL_Pudhh9JTYJMQ1-53" value="" style="shape=tableRow;horizontal=0;startSize=0;swimlaneHead=0;swimlaneBody=0;fillColor=none;collapsible=0;dropTarget=0;points=[[0,0.5],[1,0.5]];portConstraint=eastwest;top=0;left=0;right=0;bottom=1;" vertex="1" parent="78TRFL_Pudhh9JTYJMQ1-52">
          <mxGeometry y="30" width="180" height="32" as="geometry" />
        </mxCell>
        <mxCell id="78TRFL_Pudhh9JTYJMQ1-54" value="PK" style="shape=partialRectangle;connectable=0;fillColor=none;top=0;left=0;bottom=0;right=0;fontStyle=1;overflow=hidden;whiteSpace=wrap;html=1;" vertex="1" parent="78TRFL_Pudhh9JTYJMQ1-53">
          <mxGeometry width="30" height="32" as="geometry">
            <mxRectangle width="30" height="32" as="alternateBounds" />
          </mxGeometry>
        </mxCell>
        <mxCell id="78TRFL_Pudhh9JTYJMQ1-55" value="IssueID" style="shape=partialRectangle;connectable=0;fillColor=none;top=0;left=0;bottom=0;right=0;align=left;spacingLeft=6;fontStyle=5;overflow=hidden;whiteSpace=wrap;html=1;" vertex="1" parent="78TRFL_Pudhh9JTYJMQ1-53">
          <mxGeometry x="30" width="150" height="32" as="geometry">
            <mxRectangle width="150" height="32" as="alternateBounds" />
          </mxGeometry>
        </mxCell>
        <mxCell id="78TRFL_Pudhh9JTYJMQ1-56" value="" style="shape=tableRow;horizontal=0;startSize=0;swimlaneHead=0;swimlaneBody=0;fillColor=none;collapsible=0;dropTarget=0;points=[[0,0.5],[1,0.5]];portConstraint=eastwest;top=0;left=0;right=0;bottom=0;" vertex="1" parent="78TRFL_Pudhh9JTYJMQ1-52">
          <mxGeometry y="62" width="180" height="30" as="geometry" />
        </mxCell>
        <mxCell id="78TRFL_Pudhh9JTYJMQ1-57" value="FK1" style="shape=partialRectangle;connectable=0;fillColor=none;top=0;left=0;bottom=0;right=0;editable=1;overflow=hidden;whiteSpace=wrap;html=1;" vertex="1" parent="78TRFL_Pudhh9JTYJMQ1-56">
          <mxGeometry width="30" height="30" as="geometry">
            <mxRectangle width="30" height="30" as="alternateBounds" />
          </mxGeometry>
        </mxCell>
        <mxCell id="78TRFL_Pudhh9JTYJMQ1-58" value="FacultyID" style="shape=partialRectangle;connectable=0;fillColor=none;top=0;left=0;bottom=0;right=0;align=left;spacingLeft=6;overflow=hidden;whiteSpace=wrap;html=1;" vertex="1" parent="78TRFL_Pudhh9JTYJMQ1-56">
          <mxGeometry x="30" width="150" height="30" as="geometry">
            <mxRectangle width="150" height="30" as="alternateBounds" />
          </mxGeometry>
        </mxCell>
        <mxCell id="78TRFL_Pudhh9JTYJMQ1-59" value="" style="shape=tableRow;horizontal=0;startSize=0;swimlaneHead=0;swimlaneBody=0;fillColor=none;collapsible=0;dropTarget=0;points=[[0,0.5],[1,0.5]];portConstraint=eastwest;top=0;left=0;right=0;bottom=0;" vertex="1" parent="78TRFL_Pudhh9JTYJMQ1-52">
          <mxGeometry y="92" width="180" height="30" as="geometry" />
        </mxCell>
        <mxCell id="78TRFL_Pudhh9JTYJMQ1-60" value="FK2" style="shape=partialRectangle;connectable=0;fillColor=none;top=0;left=0;bottom=0;right=0;editable=1;overflow=hidden;whiteSpace=wrap;html=1;" vertex="1" parent="78TRFL_Pudhh9JTYJMQ1-59">
          <mxGeometry width="30" height="30" as="geometry">
            <mxRectangle width="30" height="30" as="alternateBounds" />
          </mxGeometry>
        </mxCell>
        <mxCell id="78TRFL_Pudhh9JTYJMQ1-61" value="book id" style="shape=partialRectangle;connectable=0;fillColor=none;top=0;left=0;bottom=0;right=0;align=left;spacingLeft=6;overflow=hidden;whiteSpace=wrap;html=1;" vertex="1" parent="78TRFL_Pudhh9JTYJMQ1-59">
          <mxGeometry x="30" width="150" height="30" as="geometry">
            <mxRectangle width="150" height="30" as="alternateBounds" />
          </mxGeometry>
        </mxCell>
        <mxCell id="78TRFL_Pudhh9JTYJMQ1-62" value="" style="shape=tableRow;horizontal=0;startSize=0;swimlaneHead=0;swimlaneBody=0;fillColor=none;collapsible=0;dropTarget=0;points=[[0,0.5],[1,0.5]];portConstraint=eastwest;top=0;left=0;right=0;bottom=0;" vertex="1" parent="78TRFL_Pudhh9JTYJMQ1-52">
          <mxGeometry y="122" width="180" height="28" as="geometry" />
        </mxCell>
        <mxCell id="78TRFL_Pudhh9JTYJMQ1-63" value="" style="shape=partialRectangle;connectable=0;fillColor=none;top=0;left=0;bottom=0;right=0;editable=1;overflow=hidden;whiteSpace=wrap;html=1;" vertex="1" parent="78TRFL_Pudhh9JTYJMQ1-62">
          <mxGeometry width="30" height="28" as="geometry">
            <mxRectangle width="30" height="28" as="alternateBounds" />
          </mxGeometry>
        </mxCell>
        <mxCell id="78TRFL_Pudhh9JTYJMQ1-64" value="Issue date" style="shape=partialRectangle;connectable=0;fillColor=none;top=0;left=0;bottom=0;right=0;align=left;spacingLeft=6;overflow=hidden;whiteSpace=wrap;html=1;" vertex="1" parent="78TRFL_Pudhh9JTYJMQ1-62">
          <mxGeometry x="30" width="150" height="28" as="geometry">
            <mxRectangle width="150" height="28" as="alternateBounds" />
          </mxGeometry>
        </mxCell>
        <mxCell id="78TRFL_Pudhh9JTYJMQ1-65" value="" style="edgeStyle=entityRelationEdgeStyle;fontSize=12;html=1;endArrow=ERoneToMany;rounded=0;fontFamily=Helvetica;fontColor=default;horizontal=0;" edge="1" parent="1">
          <mxGeometry width="100" height="100" relative="1" as="geometry">
            <mxPoint x="1023" y="280" as="sourcePoint" />
            <mxPoint x="1130" y="280" as="targetPoint" />
          </mxGeometry>
        </mxCell>
      </root>
    </mxGraphModel>
  </diagram>
</mxfile>
